<svg width="34" height="33" viewBox="0 0 34 33" fill="none" xmlns="http://www.w3.org/2000/svg">
<path d="M17 1.5C8.7155 1.5 2 8.2155 2 16.5C2 24.7845 8.7155 31.5 17 31.5C25.2845 31.5 32 24.7845 32 16.5C32 8.2155 25.2845 1.5 17 1.5Z" stroke="#292D32" stroke-width="2.25" stroke-linecap="round" stroke-linejoin="round"/>
<path d="M5.40625 26.019C5.40625 26.019 8.74975 21.75 16.9998 21.75C25.2498 21.75 28.5947 26.019 28.5947 26.019M16.9998 16.5C18.1932 16.5 19.3378 16.0259 20.1817 15.182C21.0256 14.3381 21.4998 13.1935 21.4998 12C21.4998 10.8065 21.0256 9.66193 20.1817 8.81802C19.3378 7.97411 18.1932 7.5 16.9998 7.5C15.8063 7.5 14.6617 7.97411 13.8178 8.81802C12.9739 9.66193 12.4998 10.8065 12.4998 12C12.4998 13.1935 12.9739 14.3381 13.8178 15.182C14.6617 16.0259 15.8063 16.5 16.9998 16.5Z" stroke="#292D32" stroke-width="2.25" stroke-linecap="round" stroke-linejoin="round"/>
</svg>
